<svg width="35" height="35" viewBox="0 0 35 35" fill="none" xmlns="http://www.w3.org/2000/svg">
<path d="M1.94688 0H33.075C34.1469 0 35 0.853125 35 1.925V33.075C35 34.125 34.1469 35 33.075 35H24.15V21.4375H28.7L29.3781 16.1656H24.15V12.7969C24.15 11.2656 24.5875 10.2156 26.775 10.2156H29.575V5.49063C29.0938 5.425 27.4312 5.29375 25.5063 5.29375C21.4594 5.29375 18.7031 7.74375 18.7031 12.2719V16.1656H14.1313V21.4375H18.7031V35H1.94688C0.875 35 0 34.125 0 33.075V1.925C0 0.853125 0.875 0 1.94688 0Z" fill="black"/>
</svg>
