<svg width="35" height="35" viewBox="0 0 35 35" fill="none" xmlns="http://www.w3.org/2000/svg">
<path fill-rule="evenodd" clip-rule="evenodd" d="M17.5 27.0455C22.7718 27.0455 27.0455 22.7718 27.0455 17.5C27.0455 12.2282 22.7718 7.95454 17.5 7.95454C12.2282 7.95454 7.95459 12.2282 7.95459 17.5C7.95459 22.7718 12.2282 27.0455 17.5 27.0455ZM17.5 23.8636C21.0145 23.8636 23.8637 21.0145 23.8637 17.5C23.8637 13.9855 21.0145 11.1364 17.5 11.1364C13.9855 11.1364 11.1364 13.9855 11.1364 17.5C11.1364 21.0145 13.9855 23.8636 17.5 23.8636Z" fill="black"/>
<path d="M27.0455 6.36363C26.1668 6.36363 25.4546 7.07591 25.4546 7.95454C25.4546 8.83317 26.1668 9.54545 27.0455 9.54545C27.9242 9.54545 28.6364 8.83317 28.6364 7.95454C28.6364 7.07591 27.9242 6.36363 27.0455 6.36363Z" fill="black"/>
<path fill-rule="evenodd" clip-rule="evenodd" d="M1.04039 5.21191C0 7.2538 0 9.92678 0 15.2727V19.7273C0 25.0732 0 27.7463 1.04039 29.788C1.95555 31.5842 3.41581 33.0445 5.21191 33.9595C7.2538 35 9.92678 35 15.2727 35H19.7273C25.0732 35 27.7463 35 29.788 33.9595C31.5842 33.0445 33.0445 31.5842 33.9595 29.788C35 27.7463 35 25.0732 35 19.7273V15.2727C35 9.92678 35 7.2538 33.9595 5.21191C33.0445 3.41581 31.5842 1.95555 29.788 1.04039C27.7463 0 25.0732 0 19.7273 0H15.2727C9.92678 0 7.2538 0 5.21191 1.04039C3.41581 1.95555 1.95555 3.41581 1.04039 5.21191ZM19.7273 3.18182H15.2727C12.5472 3.18182 10.6945 3.1843 9.2624 3.3013C7.86743 3.41527 7.15406 3.62185 6.65643 3.87541C5.45903 4.48552 4.48552 5.45903 3.87541 6.65643C3.62185 7.15406 3.41527 7.86743 3.3013 9.2624C3.1843 10.6945 3.18182 12.5472 3.18182 15.2727V19.7273C3.18182 22.4528 3.1843 24.3054 3.3013 25.7376C3.41527 27.1326 3.62185 27.846 3.87541 28.3436C4.48552 29.541 5.45903 30.5144 6.65643 31.1245C7.15406 31.3781 7.86743 31.5848 9.2624 31.6987C10.6945 31.8156 12.5472 31.8182 15.2727 31.8182H19.7273C22.4528 31.8182 24.3054 31.8156 25.7376 31.6987C27.1326 31.5848 27.846 31.3781 28.3436 31.1245C29.541 30.5144 30.5144 29.541 31.1245 28.3436C31.3781 27.846 31.5848 27.1326 31.6987 25.7376C31.8156 24.3054 31.8182 22.4528 31.8182 19.7273V15.2727C31.8182 12.5472 31.8156 10.6945 31.6987 9.2624C31.5848 7.86743 31.3781 7.15406 31.1245 6.65643C30.5144 5.45903 29.541 4.48552 28.3436 3.87541C27.846 3.62185 27.1326 3.41527 25.7376 3.3013C24.3054 3.1843 22.4528 3.18182 19.7273 3.18182Z" fill="black"/>
</svg>
