<svg xmlns="http://www.w3.org/2000/svg" xmlns:xlink="http://www.w3.org/1999/xlink" width="40" zoomAndPan="magnify" viewBox="0 0 30 30.000001" height="40" preserveAspectRatio="xMidYMid meet" version="1.0"><defs><clipPath id="705366c1b8"><path d="M 0.484375 0 L 29.515625 0 L 29.515625 29.03125 L 0.484375 29.03125 Z M 0.484375 0 " clip-rule="nonzero"/></clipPath></defs><g clip-path="url(#705366c1b8)"><path fill="#000000" d="M 15 27.292969 C 7.953125 27.292969 2.222656 21.5625 2.222656 14.515625 C 2.222656 7.472656 7.953125 1.738281 15 1.738281 C 22.046875 1.738281 27.777344 7.472656 27.777344 14.515625 C 27.777344 21.5625 22.046875 27.292969 15 27.292969 Z M 15 0 C 6.996094 0 0.484375 6.511719 0.484375 14.515625 C 0.484375 22.519531 6.996094 29.03125 15 29.03125 C 23.003906 29.03125 29.515625 22.519531 29.515625 14.515625 C 29.515625 6.511719 23.003906 0 15 0 " fill-opacity="1" fill-rule="nonzero"/></g><path fill="#000000" d="M 15 19.859375 C 12.054688 19.859375 9.65625 17.460938 9.65625 14.515625 C 9.65625 11.570312 12.054688 9.171875 15 9.171875 C 17.945312 9.171875 20.34375 11.570312 20.34375 14.515625 C 20.34375 17.460938 17.945312 19.859375 15 19.859375 Z M 15 7.433594 C 11.09375 7.433594 7.917969 10.609375 7.917969 14.515625 C 7.917969 18.421875 11.09375 21.597656 15 21.597656 C 18.90625 21.597656 22.082031 18.421875 22.082031 14.515625 C 22.082031 10.609375 18.90625 7.433594 15 7.433594 " fill-opacity="1" fill-rule="nonzero"/><path fill="#000000" d="M 22.292969 6.246094 C 21.652344 6.246094 21.132812 6.765625 21.132812 7.40625 C 21.132812 8.046875 21.652344 8.566406 22.292969 8.566406 C 22.933594 8.566406 23.453125 8.046875 23.453125 7.40625 C 23.453125 6.765625 22.933594 6.246094 22.292969 6.246094 " fill-opacity="1" fill-rule="nonzero"/></svg>