<svg xmlns="http://www.w3.org/2000/svg" xmlns:xlink="http://www.w3.org/1999/xlink" width="40" zoomAndPan="magnify" viewBox="0 0 30 30.000001" height="40" preserveAspectRatio="xMidYMid meet" version="1.0"><defs><clipPath id="65dd766139"><path d="M 0.484375 0 L 29.515625 0 L 29.515625 29.03125 L 0.484375 29.03125 Z M 0.484375 0 " clip-rule="nonzero"/></clipPath></defs><path fill="#ffffff" d="M 16.394531 10.164062 L 16.394531 12.523438 L 19.367188 12.523438 L 18.949219 15.75 L 16.394531 15.75 L 16.394531 23.148438 L 13.152344 23.148438 L 13.152344 15.75 L 10.378906 15.75 L 10.378906 12.523438 L 13.152344 12.523438 L 13.152344 10.164062 C 13.152344 7.605469 15.21875 5.882812 17.777344 5.882812 C 18.902344 5.882812 19.609375 6.054688 19.609375 6.054688 L 19.609375 8.78125 L 17.777344 8.78125 C 17.019531 8.78125 16.394531 9.40625 16.394531 10.164062 Z M 16.394531 10.164062 " fill-opacity="1" fill-rule="nonzero"/><g clip-path="url(#65dd766139)"><path fill="#ffffff" d="M 15 29.03125 C 7.003906 29.03125 0.484375 22.527344 0.484375 14.515625 C 0.484375 6.507812 7.003906 0 15 0 C 23.011719 0 29.515625 6.519531 29.515625 14.515625 C 29.515625 22.515625 23.011719 29.03125 15 29.03125 Z M 15 0.792969 C 7.429688 0.792969 1.277344 6.945312 1.277344 14.515625 C 1.277344 22.085938 7.429688 28.238281 15 28.238281 C 22.570312 28.238281 28.722656 22.085938 28.722656 14.515625 C 28.722656 6.945312 22.570312 0.792969 15 0.792969 Z M 15 0.792969 " fill-opacity="1" fill-rule="nonzero"/></g></svg>