<svg xmlns="http://www.w3.org/2000/svg" xmlns:xlink="http://www.w3.org/1999/xlink" width="40" zoomAndPan="magnify" viewBox="0 0 30 30.000001" height="40" preserveAspectRatio="xMidYMid meet" version="1.0"><defs><clipPath id="3449f82f80"><path d="M 0.484375 3 L 29.515625 3 L 29.515625 26.21875 L 0.484375 26.21875 Z M 0.484375 3 " clip-rule="nonzero"/></clipPath></defs><g clip-path="url(#3449f82f80)"><path fill="#000000" d="M 27.269531 11.617188 C 27.550781 10.058594 26.710938 8.828125 25.625 8.242188 C 25.160156 7.992188 24.605469 7.839844 24.035156 7.835938 C 23.632812 6.667969 22.785156 5.644531 21.71875 5.046875 C 20.816406 4.542969 19.8125 4.390625 18.878906 4.617188 C 16.417969 3.003906 11.316406 3.066406 9.425781 4.535156 C 8.988281 4.871094 8.722656 5.277344 8.632812 5.726562 C 7.617188 5.609375 6.546875 5.675781 5.636719 5.902344 C 4.269531 6.242188 3.289062 6.953125 2.804688 7.945312 C 2.640625 8.28125 2.542969 8.636719 2.5 8.992188 C 1.332031 9.148438 0.585938 10.054688 0.535156 11.429688 C 0.484375 12.707031 1.035156 14.097656 2.003906 14.921875 C 1.960938 16.34375 2.410156 17.546875 3.300781 18.40625 C 4.113281 19.183594 5.222656 19.597656 6.460938 19.597656 C 6.5625 19.597656 6.671875 19.589844 6.777344 19.585938 C 6.835938 19.863281 6.925781 20.089844 7.023438 20.269531 C 7.75 21.664062 9.566406 22.371094 11.160156 22.371094 C 11.316406 22.371094 11.46875 22.367188 11.617188 22.347656 C 13.675781 23.296875 15.265625 24.539062 16.347656 26.046875 C 16.421875 26.152344 16.542969 26.210938 16.664062 26.210938 C 16.695312 26.210938 16.71875 26.210938 16.746094 26.207031 L 19.265625 25.671875 C 19.453125 25.628906 19.585938 25.460938 19.574219 25.265625 C 19.546875 24.597656 19.339844 23.441406 19.046875 22.582031 C 19.597656 22.699219 20.167969 22.753906 20.738281 22.753906 C 21.210938 22.753906 21.679688 22.714844 22.132812 22.640625 C 24.375 22.25 25.816406 20.988281 25.996094 19.3125 C 26.171875 19.28125 26.339844 19.234375 26.496094 19.171875 C 28.183594 18.457031 28.386719 17.574219 28.316406 17.035156 C 28.863281 16.777344 29.214844 16.3125 29.3125 15.691406 C 29.515625 14.425781 28.578125 12.585938 27.269531 11.617188 Z M 18.769531 24.972656 L 16.839844 25.378906 C 15.847656 24.074219 14.503906 22.964844 12.832031 22.070312 C 13.6875 21.726562 14.285156 21.105469 14.535156 20.285156 C 14.828125 20.269531 15.121094 20.210938 15.410156 20.128906 C 15.910156 21.171875 16.902344 21.894531 18.09375 22.320312 C 18.371094 22.855469 18.675781 24.121094 18.769531 24.972656 Z M 22 21.867188 C 21.597656 21.9375 21.183594 21.972656 20.757812 21.972656 C 18.847656 21.972656 16.878906 21.261719 16.148438 19.851562 C 16.457031 19.707031 16.746094 19.53125 17.003906 19.347656 C 17.652344 19.609375 18.375 19.746094 19.101562 19.746094 C 20.429688 19.746094 21.742188 19.289062 22.539062 18.300781 C 23.316406 18.875 24.308594 19.265625 25.195312 19.339844 C 24.941406 21.203125 22.714844 21.738281 22 21.867188 Z M 28.535156 15.578125 C 28.484375 15.917969 28.3125 16.164062 28.019531 16.308594 C 27.699219 15.867188 27.164062 15.496094 26.53125 15.246094 C 26.515625 14.066406 25.964844 12.644531 24.734375 12.035156 C 24.539062 11.933594 24.300781 12.015625 24.207031 12.214844 C 24.109375 12.410156 24.191406 12.648438 24.386719 12.742188 C 25.246094 13.167969 25.660156 14.136719 25.734375 15.011719 C 25.355469 14.9375 24.964844 14.910156 24.570312 14.9375 C 24.351562 14.949219 24.191406 15.140625 24.203125 15.363281 C 24.214844 15.582031 24.40625 15.746094 24.625 15.734375 C 25.113281 15.703125 25.597656 15.773438 26.023438 15.90625 C 26.03125 15.90625 26.03125 15.90625 26.035156 15.914062 C 26.753906 16.140625 27.316406 16.546875 27.492188 16.953125 C 27.492188 16.953125 27.492188 16.960938 27.492188 16.960938 C 27.511719 17 27.523438 17.039062 27.535156 17.082031 C 27.644531 17.546875 27.152344 18.046875 26.195312 18.453125 C 26.035156 18.519531 25.84375 18.554688 25.636719 18.566406 C 25.632812 18.566406 25.625 18.566406 25.621094 18.566406 C 25.613281 18.566406 25.609375 18.566406 25.597656 18.566406 C 24.480469 18.601562 22.878906 17.847656 22.230469 16.878906 C 21.800781 16.234375 21.863281 15.648438 22.421875 15.078125 C 22.578125 14.921875 22.570312 14.671875 22.421875 14.515625 C 22.265625 14.355469 22.019531 14.363281 21.863281 14.515625 C 21.046875 15.34375 20.945312 16.367188 21.582031 17.3125 C 21.691406 17.476562 21.8125 17.628906 21.949219 17.773438 C 21.046875 18.921875 19.171875 19.183594 17.691406 18.738281 C 17.707031 18.714844 17.730469 18.695312 17.75 18.671875 C 17.894531 18.511719 17.875 18.253906 17.714844 18.113281 C 17.554688 17.976562 17.300781 17.988281 17.160156 18.148438 C 16.796875 18.566406 16.1875 18.996094 15.511719 19.257812 C 15.511719 19.257812 15.507812 19.257812 15.507812 19.257812 C 15.507812 19.257812 15.5 19.257812 15.5 19.257812 C 15.105469 19.410156 14.683594 19.496094 14.28125 19.492188 C 13.679688 19.480469 13.207031 19.257812 12.863281 18.828125 C 12.722656 18.660156 12.476562 18.632812 12.308594 18.769531 C 12.140625 18.910156 12.113281 19.160156 12.25 19.328125 C 12.632812 19.800781 13.132812 20.105469 13.726562 20.222656 C 13.347656 21.148438 12.382812 21.4375 11.796875 21.523438 C 10.152344 21.773438 8.328125 21.042969 7.726562 19.890625 C 7.25 18.972656 7.570312 17.863281 8.667969 16.679688 C 9.871094 15.375 15.605469 11.855469 18.671875 11.773438 C 18.890625 11.765625 19.0625 11.585938 19.058594 11.367188 C 19.050781 11.144531 18.871094 10.972656 18.652344 10.976562 C 17.640625 11.007812 16.433594 11.355469 15.316406 11.796875 C 14.996094 10.820312 15.15625 9.660156 16.117188 9.164062 C 16.3125 9.066406 16.390625 8.828125 16.289062 8.628906 C 16.191406 8.433594 15.957031 8.355469 15.761719 8.457031 C 14.378906 9.164062 14.136719 10.78125 14.585938 12.097656 C 13.832031 12.421875 13.148438 12.773438 12.636719 13.042969 C 11.546875 13.625 10.488281 14.277344 9.636719 14.875 C 9.652344 14.265625 9.898438 13.632812 10.160156 12.976562 C 10.558594 11.964844 10.996094 10.835938 10.613281 9.652344 C 11.363281 9.59375 12.101562 9.496094 12.707031 9.164062 C 13.605469 8.675781 14.019531 7.792969 13.980469 6.46875 C 13.972656 6.25 13.796875 6.082031 13.570312 6.085938 C 13.351562 6.09375 13.183594 6.277344 13.191406 6.5 C 13.257812 8.589844 12.042969 8.769531 10.050781 8.898438 C 8.691406 8.984375 7.152344 9.078125 6.714844 10.507812 C 6.648438 10.714844 6.765625 10.9375 6.972656 11.007812 C 7.011719 11.015625 7.054688 11.023438 7.085938 11.023438 C 7.253906 11.023438 7.410156 10.914062 7.460938 10.746094 C 7.703125 9.960938 8.503906 9.804688 9.789062 9.714844 C 10.207031 10.703125 9.824219 11.667969 9.421875 12.691406 C 9.074219 13.574219 8.71875 14.484375 8.878906 15.4375 C 8.546875 15.699219 8.273438 15.941406 8.085938 16.144531 C 7.140625 17.167969 6.792969 18.0625 6.738281 18.789062 C 5.589844 18.851562 4.570312 18.515625 3.847656 17.824219 C 3.222656 17.226562 2.863281 16.402344 2.800781 15.421875 C 3.089844 15.546875 3.40625 15.628906 3.738281 15.65625 C 3.75 15.65625 3.761719 15.65625 3.773438 15.65625 C 3.976562 15.65625 4.148438 15.5 4.167969 15.292969 C 4.183594 15.070312 4.023438 14.878906 3.804688 14.863281 C 2.269531 14.742188 1.269531 12.96875 1.324219 11.457031 C 1.34375 10.996094 1.503906 9.984375 2.519531 9.792969 C 2.5625 10.113281 2.667969 10.429688 2.816406 10.726562 C 3.199219 11.464844 3.855469 11.980469 4.644531 12.183594 C 4.902344 13.300781 5.628906 14.269531 6.921875 14.472656 C 6.945312 14.480469 6.960938 14.480469 6.984375 14.480469 C 7.175781 14.480469 7.339844 14.339844 7.371094 14.140625 C 7.40625 13.925781 7.253906 13.722656 7.042969 13.6875 C 5.785156 13.492188 5.273438 12.214844 5.324219 11.035156 C 5.335938 10.8125 5.164062 10.628906 4.949219 10.621094 C 4.730469 10.609375 4.546875 10.785156 4.539062 11 C 4.535156 11.105469 4.535156 11.210938 4.539062 11.308594 C 4.109375 11.121094 3.746094 10.789062 3.527344 10.355469 C 3.363281 10.042969 3.285156 9.703125 3.277344 9.363281 C 3.277344 9.363281 3.277344 9.355469 3.277344 9.355469 C 3.277344 9.351562 3.277344 9.351562 3.277344 9.34375 C 3.277344 8.992188 3.359375 8.628906 3.527344 8.292969 C 4.402344 6.492188 7.121094 6.34375 8.660156 6.527344 C 8.722656 6.800781 8.839844 7.085938 9.011719 7.375 C 9.128906 7.5625 9.371094 7.621094 9.554688 7.503906 C 9.738281 7.386719 9.796875 7.144531 9.679688 6.957031 C 9.503906 6.667969 9.410156 6.40625 9.394531 6.160156 C 9.394531 6.15625 9.394531 6.15625 9.394531 6.148438 C 9.371094 5.773438 9.542969 5.449219 9.917969 5.15625 C 10.777344 4.496094 12.578125 4.128906 14.511719 4.226562 C 16.503906 4.332031 18.222656 4.902344 18.988281 5.714844 C 19.714844 6.488281 19.574219 7.484375 18.5625 8.671875 C 18.417969 8.839844 18.441406 9.089844 18.601562 9.230469 C 18.675781 9.292969 18.769531 9.320312 18.855469 9.320312 C 18.964844 9.320312 19.074219 9.273438 19.15625 9.183594 C 20.769531 7.28125 20.234375 5.96875 19.667969 5.296875 C 20.347656 5.277344 20.925781 5.5 21.332031 5.730469 C 22.1875 6.207031 22.871094 7.011719 23.230469 7.925781 C 22.539062 8.109375 21.863281 8.539062 21.332031 9.308594 C 20.832031 10.035156 20.613281 10.972656 20.398438 11.878906 C 20.152344 12.921875 19.914062 13.914062 19.300781 14.28125 C 19.003906 14.457031 18.613281 14.503906 18.105469 14.402344 C 18.105469 14.355469 18.105469 14.3125 18.105469 14.257812 C 18.101562 14.039062 17.921875 13.863281 17.703125 13.871094 C 17.484375 13.875 17.3125 14.054688 17.316406 14.277344 C 17.316406 14.390625 17.304688 14.496094 17.289062 14.601562 C 17.289062 14.601562 17.289062 14.605469 17.289062 14.605469 C 17.167969 15.152344 16.734375 15.519531 16.355469 15.738281 C 15.578125 16.199219 14.5625 16.304688 14.203125 16.089844 C 14.019531 15.976562 13.777344 16.035156 13.664062 16.226562 C 13.554688 16.414062 13.609375 16.65625 13.800781 16.773438 C 14.050781 16.925781 14.390625 16.992188 14.765625 16.992188 C 15.390625 16.992188 16.128906 16.796875 16.75 16.429688 C 17.316406 16.097656 17.714844 15.667969 17.925781 15.183594 C 18.164062 15.226562 18.382812 15.25 18.589844 15.25 C 19.011719 15.25 19.378906 15.160156 19.695312 14.96875 C 20.601562 14.425781 20.882812 13.222656 21.160156 12.0625 C 21.355469 11.230469 21.558594 10.367188 21.980469 9.761719 C 22.46875 9.046875 23.109375 8.710938 23.742188 8.636719 C 23.742188 8.636719 23.742188 8.636719 23.746094 8.636719 C 23.769531 8.636719 23.800781 8.628906 23.824219 8.628906 C 24.324219 8.589844 24.824219 8.707031 25.246094 8.9375 C 26.121094 9.414062 26.929688 10.519531 26.3125 12.074219 C 26.230469 12.277344 26.328125 12.511719 26.53125 12.589844 C 26.714844 12.667969 26.917969 12.589844 27.015625 12.429688 C 27.976562 13.257812 28.679688 14.664062 28.535156 15.578125 Z M 28.535156 15.578125 " fill-opacity="1" fill-rule="nonzero"/></g></svg>