<svg width="40" height="40" viewBox="0 0 40 40" fill="none" xmlns="http://www.w3.org/2000/svg">
<path d="M18.4376 27.5388C18.1914 27.5395 17.9475 27.489 17.72 27.3903C17.4925 27.2916 17.2858 27.1466 17.112 26.9636C16.3807 26.197 16.3814 24.9482 17.1126 24.1809C17.1416 24.1504 17.176 24.1262 17.214 24.1098C17.2519 24.0933 17.2925 24.0848 17.3335 24.0848C17.3746 24.0848 17.4152 24.0933 17.4531 24.1098C17.491 24.1262 17.5255 24.1504 17.5545 24.1809C17.5835 24.2113 17.6066 24.2474 17.6223 24.2872C17.638 24.327 17.6461 24.3696 17.6461 24.4127C17.6461 24.4557 17.638 24.4984 17.6223 24.5381C17.6066 24.5779 17.5835 24.6141 17.5545 24.6445C17.0668 25.1562 17.0668 25.9881 17.5539 26.4999C18.0403 27.0104 18.8338 27.011 19.3227 26.4999C19.5541 26.2565 19.6847 25.9343 19.6889 25.593C19.6913 25.4118 19.8238 25.258 20.0057 25.2696C20.0468 25.2702 20.0873 25.2792 20.125 25.2962C20.1627 25.3132 20.1968 25.3379 20.2255 25.3688C20.2541 25.3996 20.2766 25.4361 20.2918 25.4761C20.307 25.5162 20.3145 25.5589 20.3139 25.602C20.3072 26.1151 20.1119 26.5979 19.7646 26.963C19.3989 27.3472 18.918 27.5388 18.4376 27.5388ZM16.5638 19.1162C15.5299 19.1162 14.6888 18.234 14.6888 17.1493C14.6888 16.0641 15.5299 15.1813 16.5638 15.1813C17.0226 15.1806 17.4656 15.3565 17.809 15.6757C17.8709 15.7335 17.9085 15.8147 17.9134 15.9015C17.9183 15.9883 17.8902 16.0736 17.8352 16.1387C17.7801 16.2036 17.7027 16.2429 17.62 16.2481C17.5373 16.2533 17.456 16.2238 17.3939 16.1663C17.165 15.9535 16.8696 15.8364 16.5638 15.8371C15.8748 15.8371 15.3138 16.4257 15.3138 17.1493C15.3138 17.8721 15.8747 18.4603 16.5638 18.4603C16.6049 18.4603 16.6455 18.4688 16.6835 18.4852C16.7214 18.5017 16.7559 18.5259 16.7849 18.5563C16.8139 18.5868 16.8369 18.6229 16.8526 18.6627C16.8683 18.7025 16.8764 18.7452 16.8763 18.7882C16.8764 18.8313 16.8683 18.874 16.8526 18.9138C16.8369 18.9536 16.8139 18.9897 16.7849 19.0202C16.7559 19.0507 16.7214 19.0748 16.6835 19.0913C16.6455 19.1078 16.6049 19.1162 16.5638 19.1162ZM14.6253 22.8667C14.5825 22.8665 14.5402 22.8574 14.5008 22.8398C14.2779 22.7377 14.0883 22.5695 13.9552 22.356C13.822 22.1425 13.7512 21.8928 13.7513 21.6377C13.7513 20.914 14.3122 20.3254 15.0013 20.3254C15.174 20.3254 15.3138 20.4721 15.3138 20.6533C15.3138 20.8346 15.174 20.9812 15.0013 20.9812C14.6565 20.9812 14.3762 21.2758 14.3762 21.6377C14.376 21.765 14.4113 21.8896 14.4776 21.9962C14.544 22.1029 14.6386 22.1868 14.7498 22.2378C14.7874 22.255 14.8215 22.2798 14.85 22.3108C14.8785 22.3418 14.9009 22.3784 14.9159 22.4185C14.9309 22.4585 14.9383 22.5014 14.9375 22.5444C14.9367 22.5875 14.9279 22.63 14.9115 22.6695C14.8874 22.7281 14.8474 22.778 14.7966 22.813C14.7457 22.8481 14.6862 22.8667 14.6253 22.8667Z" fill="black"/>
<path d="M15.0013 20.9811C14.1395 20.9811 13.4388 20.2463 13.4388 19.3429C13.4394 18.3236 14.3647 17.5275 15.3291 17.7379C15.4101 17.7557 15.4811 17.8066 15.5264 17.8793C15.5718 17.952 15.5877 18.0407 15.5708 18.1257C15.5626 18.168 15.5465 18.2081 15.5235 18.2439C15.5004 18.2796 15.4708 18.3101 15.4364 18.3337C15.402 18.3573 15.3635 18.3736 15.323 18.3814C15.2826 18.3893 15.2411 18.3887 15.2009 18.3796C14.6205 18.2541 14.0638 18.7309 14.0638 19.3429C14.0638 19.8846 14.4844 20.3253 15.0014 20.3253C15.1741 20.3253 15.3139 20.472 15.3139 20.6532C15.3139 20.8345 15.174 20.9811 15.0013 20.9811ZM18.7513 17.0462C17.8895 17.0462 17.1888 16.3113 17.1888 15.4079C17.1888 14.5033 17.8895 13.7671 18.7513 13.7671C19.6131 13.7671 20.3138 14.5033 20.3138 15.4079C20.3139 15.451 20.3058 15.4936 20.2901 15.5334C20.2744 15.5732 20.2514 15.6094 20.2223 15.6398C20.1933 15.6703 20.1589 15.6944 20.1209 15.7109C20.083 15.7274 20.0424 15.7359 20.0013 15.7358C19.9603 15.7359 19.9196 15.7274 19.8817 15.7109C19.8438 15.6945 19.8093 15.6703 19.7803 15.6399C19.7512 15.6094 19.7282 15.5733 19.7125 15.5335C19.6968 15.4937 19.6887 15.451 19.6888 15.4079C19.6888 14.8649 19.2682 14.4229 18.7512 14.4229C18.2343 14.4229 17.8137 14.8649 17.8137 15.4079C17.8137 15.9497 18.2343 16.3904 18.7512 16.3904C18.7923 16.3904 18.8329 16.3988 18.8708 16.4153C18.9088 16.4318 18.9432 16.4559 18.9723 16.4864C19.0013 16.5168 19.0243 16.553 19.04 16.5928C19.0557 16.6326 19.0638 16.6752 19.0638 16.7183C19.0638 16.7614 19.0558 16.804 19.0401 16.8438C19.0244 16.8836 19.0014 16.9198 18.9724 16.9503C18.9433 16.9807 18.9089 17.0049 18.8709 17.0213C18.833 17.0378 18.7923 17.0462 18.7513 17.0462ZM16.5682 26.229C15.9102 26.229 15.2674 25.9549 14.795 25.4598C13.8203 24.437 13.8209 22.7725 14.7962 21.7491C15.2687 21.2528 15.8961 20.9799 16.5627 20.9799H16.5633C17.2298 20.9799 17.8579 21.2528 18.3315 21.7497C18.3605 21.7802 18.3835 21.8163 18.3993 21.8561C18.415 21.8959 18.4231 21.9385 18.4231 21.9816C18.4231 22.0246 18.415 22.0673 18.3993 22.1071C18.3835 22.1468 18.3605 22.183 18.3315 22.2134C18.3025 22.2439 18.268 22.2681 18.2301 22.2845C18.1922 22.301 18.1516 22.3095 18.1105 22.3095C18.0695 22.3095 18.0288 22.301 17.9909 22.2845C17.953 22.2681 17.9186 22.2439 17.8896 22.2134C17.5344 21.8407 17.0631 21.6357 16.5633 21.6357H16.5627C16.0634 21.6357 15.5928 21.8407 15.2382 22.2128C14.5064 22.9806 14.5058 24.2295 15.237 24.9962C15.6599 25.4394 16.2654 25.6482 16.8538 25.5501C17.0217 25.5259 17.1846 25.645 17.2109 25.8237C17.2234 25.9096 17.2031 25.9972 17.1542 26.0674C17.1054 26.1376 17.032 26.1847 16.9502 26.1983C16.8238 26.2187 16.6961 26.229 16.5682 26.229ZM21.5648 27.5394C21.0838 27.5394 20.6038 27.3472 20.2381 26.9636C19.8909 26.5979 19.6956 26.115 19.6888 25.602C19.6883 25.5589 19.6958 25.5162 19.711 25.4761C19.7261 25.4361 19.7487 25.3996 19.7773 25.3688C19.806 25.3379 19.8401 25.3132 19.8778 25.2962C19.9155 25.2792 19.9561 25.2702 19.9971 25.2696C20.1722 25.2632 20.3109 25.4118 20.3139 25.593C20.3182 25.9343 20.4488 26.2565 20.6798 26.5005C21.1694 27.0115 21.9628 27.0115 22.4487 26.4998C22.9356 25.9881 22.9356 25.1561 22.4487 24.6444C22.3265 24.5163 22.3265 24.3089 22.4487 24.1808C22.5708 24.0527 22.7685 24.0527 22.8905 24.1808C23.6218 24.9481 23.6218 26.1969 22.8905 26.9635C22.5255 27.3472 22.0445 27.5394 21.5648 27.5394ZM23.4385 19.1162C23.3557 19.1161 23.2762 19.0816 23.2177 19.0201C23.1591 18.9586 23.1262 18.8752 23.1261 18.7883C23.1261 18.7014 23.1591 18.618 23.2176 18.5565C23.2762 18.4951 23.3557 18.4605 23.4385 18.4604C24.1282 18.4604 24.6886 17.8721 24.6886 17.1494C24.6886 16.4258 24.1282 15.8371 23.4385 15.8371C23.1327 15.8365 22.8374 15.9537 22.6085 16.1664C22.4791 16.2858 22.2813 16.2742 22.1677 16.1388C22.1128 16.0737 22.0847 15.9885 22.0895 15.9017C22.0943 15.815 22.1316 15.7337 22.1934 15.6758C22.5368 15.3567 22.9798 15.1808 23.4385 15.1813C24.4725 15.1813 25.3135 16.0642 25.3135 17.1494C25.3136 18.234 24.4725 19.1162 23.4385 19.1162ZM25.377 22.8667C25.2575 22.8667 25.1415 22.7931 25.0914 22.6694C25.0749 22.63 25.0659 22.5875 25.0651 22.5445C25.0643 22.5014 25.0715 22.4586 25.0865 22.4184C25.1015 22.3783 25.1239 22.3417 25.1524 22.3107C25.1809 22.2797 25.215 22.2549 25.2526 22.2378C25.3638 22.1868 25.4584 22.1028 25.5247 21.9962C25.5911 21.8896 25.6263 21.765 25.6261 21.6377C25.6261 21.2758 25.3466 20.9812 25.0011 20.9812C24.9183 20.9812 24.8388 20.9466 24.7802 20.8851C24.7216 20.8236 24.6887 20.7403 24.6886 20.6533C24.6887 20.5664 24.7216 20.483 24.7802 20.4215C24.8388 20.3601 24.9183 20.3255 25.0011 20.3254C25.6908 20.3254 26.2511 20.914 26.2511 21.6377C26.2512 21.8928 26.1803 22.1425 26.0472 22.356C25.914 22.5695 25.7244 22.7377 25.5016 22.8398C25.4622 22.8574 25.4198 22.8665 25.377 22.8667Z" fill="black"/>
<path d="M25.0011 20.9811C24.9183 20.9811 24.8388 20.9465 24.7802 20.885C24.7216 20.8236 24.6887 20.7402 24.6886 20.6532C24.6887 20.5663 24.7216 20.4829 24.7802 20.4215C24.8388 20.36 24.9183 20.3254 25.0011 20.3253C25.5187 20.3253 25.9386 19.8847 25.9386 19.3429C25.9386 18.7306 25.3832 18.2522 24.8021 18.3796C24.762 18.3887 24.7204 18.3894 24.68 18.3815C24.6396 18.3737 24.601 18.3575 24.5666 18.3338C24.5322 18.3102 24.5026 18.2796 24.4795 18.2439C24.4565 18.2082 24.4404 18.168 24.4323 18.1257C24.4154 18.0407 24.4313 17.952 24.4766 17.8793C24.522 17.8066 24.593 17.7558 24.674 17.7379C25.6408 17.5276 26.5637 18.3237 26.5637 19.3429C26.5636 20.2463 25.8629 20.9811 25.0011 20.9811ZM21.2511 17.0462C21.1682 17.0461 21.0888 17.0116 21.0302 16.9501C20.9716 16.8886 20.9386 16.8052 20.9386 16.7183C20.9386 16.6314 20.9716 16.548 21.0302 16.4865C21.0888 16.425 21.1682 16.3905 21.2511 16.3904C21.7686 16.3904 22.1885 15.9498 22.1885 15.4079C22.1885 14.8649 21.7686 14.4229 21.2511 14.4229C20.7348 14.4229 20.3139 14.8649 20.3139 15.4079C20.3139 15.451 20.3059 15.4936 20.2902 15.5334C20.2745 15.5732 20.2514 15.6094 20.2224 15.6398C20.1934 15.6703 20.1589 15.6944 20.121 15.7109C20.0831 15.7274 20.0425 15.7359 20.0014 15.7358C19.9604 15.7359 19.9197 15.7274 19.8818 15.7109C19.8438 15.6945 19.8094 15.6703 19.7803 15.6399C19.7513 15.6094 19.7283 15.5733 19.7126 15.5335C19.6969 15.4937 19.6888 15.451 19.6888 15.4079C19.6888 14.5033 20.3895 13.7671 21.2511 13.7671C22.1129 13.7671 22.8135 14.5033 22.8135 15.4079C22.8135 16.3113 22.1129 17.0462 21.2511 17.0462ZM23.4337 26.229C23.3062 26.2289 23.1788 26.2187 23.0528 26.1983C22.971 26.1847 22.8975 26.1377 22.8486 26.0675C22.7996 25.9973 22.7791 25.9097 22.7915 25.8237C22.8184 25.6443 22.9808 25.5227 23.1492 25.5501C23.7389 25.6482 24.3431 25.4394 24.7655 24.9956C25.4967 24.2295 25.4967 22.9806 24.7642 22.2128C24.4103 21.8407 23.939 21.6357 23.4398 21.6357C22.9393 21.6357 22.4681 21.8407 22.1129 22.2134C21.9907 22.3415 21.793 22.3415 21.671 22.2134C21.5489 22.0853 21.5489 21.8778 21.671 21.7497C22.1447 21.2528 22.7733 20.9799 23.4398 20.9799C24.1063 20.9799 24.7337 21.2528 25.2062 21.7491C26.1816 22.7726 26.1828 24.4371 25.2074 25.4598C24.7349 25.9549 24.0929 26.229 23.4337 26.229ZM24.0624 38.6884H15.9376C15.8966 38.6884 15.8559 38.6799 15.818 38.6634C15.7801 38.6469 15.7457 38.6227 15.7167 38.5923L14.4666 37.2807C14.4376 37.2502 14.4146 37.2141 14.3989 37.1743C14.3832 37.1345 14.3751 37.0919 14.3751 37.0488V32.4581C14.375 32.415 14.3831 32.3724 14.3988 32.3326C14.4145 32.2928 14.4375 32.2566 14.4665 32.2262C14.4956 32.1957 14.53 32.1716 14.5679 32.1551C14.6059 32.1386 14.6465 32.1302 14.6876 32.1302H25.3124C25.3952 32.1302 25.4747 32.1648 25.5333 32.2263C25.5919 32.2878 25.6248 32.3711 25.6248 32.4581V37.0488C25.6248 37.0919 25.6168 37.1345 25.6011 37.1743C25.5853 37.2141 25.5623 37.2502 25.5333 37.2807L24.2833 38.5923C24.2543 38.6227 24.2199 38.6469 24.182 38.6634C24.1441 38.6799 24.1034 38.6884 24.0624 38.6884ZM16.067 38.0325H23.933L24.9999 36.9131V32.786H15.0001V36.9131L16.067 38.0325Z" fill="black"/>
<path d="M14.0626 34.7534C13.9826 34.7534 13.9056 34.7212 13.8476 34.6634C13.7895 34.6056 13.7549 34.5266 13.7507 34.4428C13.7464 34.3559 13.775 34.2708 13.8304 34.2061C13.8858 34.1414 13.9633 34.1024 14.0461 34.0976L25.9203 33.4418C26.0961 33.4379 26.2401 33.5718 26.2487 33.7525C26.2584 33.9337 26.1254 34.0873 25.9533 34.0976L14.0791 34.7534H14.0626ZM14.0626 36.7209C13.9826 36.7209 13.9056 36.6886 13.8476 36.6309C13.7896 36.5731 13.7549 36.4941 13.7507 36.4103C13.7464 36.3234 13.775 36.2383 13.8304 36.1736C13.8858 36.1089 13.9633 36.0698 14.0461 36.0651L25.9203 35.4093C25.9613 35.4068 26.0025 35.4129 26.0413 35.4272C26.08 35.4415 26.1157 35.4637 26.1463 35.4926C26.1768 35.5215 26.2016 35.5564 26.2192 35.5955C26.2367 35.6345 26.2468 35.6767 26.2487 35.7198C26.2584 35.9011 26.1254 36.0548 25.9533 36.0651L14.0791 36.7209H14.0626ZM25.3124 32.786H14.6876C14.6465 32.786 14.6059 32.7775 14.568 32.7611C14.53 32.7446 14.4956 32.7204 14.4666 32.69C14.4375 32.6595 14.4145 32.6234 14.3988 32.5836C14.3831 32.5438 14.3751 32.5012 14.3751 32.4581V30.4253C11.2409 28.3701 9.37506 24.8534 9.37506 20.9812C9.37506 14.8336 14.1413 9.83226 20.0002 9.83226C25.8581 9.83226 30.6249 14.8335 30.6249 20.9812C30.6249 24.8541 28.7584 28.3707 25.6248 30.4253V32.4581C25.6248 32.545 25.5918 32.6284 25.5332 32.6899C25.4747 32.7514 25.3952 32.7859 25.3124 32.786ZM15.0001 32.1302H24.9999V30.2421C24.9998 30.1856 25.0137 30.1301 25.0402 30.0809C25.0668 30.0317 25.105 29.9906 25.1512 29.9616C28.1872 28.0408 30 24.6843 30 20.9811C30 15.1954 25.5138 10.4881 20.0002 10.4881C14.4862 10.4881 10.0001 15.1954 10.0001 20.9811C10.0001 24.6829 11.8129 28.0402 14.8489 29.9616C14.8951 29.9906 14.9333 30.0317 14.9598 30.0809C14.9864 30.1301 15.0003 30.1856 15.0002 30.2421V32.1302H15.0001ZM20.0002 40C17.6466 40 16.9373 38.5679 16.9081 38.5071C16.871 38.4293 16.8649 38.3393 16.8912 38.2568C16.9174 38.1743 16.9737 38.1061 17.0479 38.0671C17.2024 37.9877 17.3884 38.0512 17.466 38.2113C17.4904 38.2606 18.058 39.3443 20.0002 39.3443C21.9445 39.3443 22.5109 38.2574 22.5341 38.2107C22.6135 38.0518 22.8014 37.9878 22.954 38.0698C23.1066 38.1517 23.1689 38.3464 23.092 38.5072C23.0626 38.5679 22.3534 40 20.0002 40ZM6.56248 21.309H0.312492C0.271446 21.3091 0.230797 21.3006 0.19287 21.2841C0.154943 21.2677 0.120482 21.2435 0.0914579 21.2131C0.0624343 21.1826 0.0394175 21.1465 0.0237243 21.1067C0.00803103 21.0669 -3.07539e-05 21.0242 8.81606e-08 20.9811C-3.07539e-05 20.9381 0.00803103 20.8954 0.0237243 20.8556C0.0394175 20.8158 0.0624343 20.7797 0.0914579 20.7492C0.120482 20.7188 0.154943 20.6946 0.19287 20.6781C0.230797 20.6617 0.271446 20.6532 0.312492 20.6532H6.56248C6.60353 20.6532 6.64418 20.6617 6.68211 20.6781C6.72004 20.6946 6.75451 20.7188 6.78354 20.7492C6.81257 20.7797 6.83559 20.8158 6.85129 20.8556C6.867 20.8954 6.87507 20.9381 6.87505 20.9811C6.87507 21.0242 6.867 21.0669 6.85129 21.1067C6.83559 21.1465 6.81257 21.1826 6.78354 21.2131C6.75451 21.2435 6.72004 21.2677 6.68211 21.2842C6.64418 21.3006 6.60353 21.3091 6.56248 21.309ZM39.6875 21.309H33.4374C33.3964 21.3091 33.3557 21.3007 33.3178 21.2842C33.2798 21.2678 33.2454 21.2436 33.2163 21.2132C33.1873 21.1827 33.1643 21.1465 33.1486 21.1067C33.1329 21.0669 33.1249 21.0242 33.125 20.9811C33.1249 20.9381 33.1329 20.8954 33.1486 20.8556C33.1643 20.8158 33.1873 20.7796 33.2163 20.7491C33.2454 20.7187 33.2798 20.6945 33.3178 20.6781C33.3557 20.6616 33.3964 20.6532 33.4374 20.6532H39.6875C39.7704 20.6533 39.8498 20.6879 39.9084 20.7494C39.967 20.8108 39.9999 20.8942 40 20.9811C40 21.0681 39.967 21.1515 39.9084 21.213C39.8498 21.2744 39.7704 21.309 39.6875 21.309ZM2.94979 31.6382C2.89497 31.6382 2.84111 31.6231 2.79365 31.5943C2.74619 31.5656 2.70679 31.5242 2.67944 31.4743C2.65885 31.437 2.64548 31.3958 2.64007 31.3531C2.63467 31.3104 2.63734 31.267 2.64793 31.2253C2.65852 31.1837 2.67683 31.1447 2.70181 31.1105C2.72679 31.0763 2.75795 31.0475 2.7935 31.026L8.20742 27.7468C8.35698 27.6572 8.5486 27.7097 8.63405 27.8673C8.65463 27.9046 8.668 27.9457 8.6734 27.9885C8.6788 28.0312 8.67613 28.0746 8.66553 28.1162C8.65493 28.1579 8.63661 28.1969 8.61162 28.2311C8.58664 28.2653 8.55547 28.294 8.51991 28.3156L3.10607 31.5947C3.05848 31.6232 3.00461 31.6382 2.94979 31.6382ZM31.6381 14.259C31.5832 14.2591 31.5292 14.244 31.4816 14.2152C31.434 14.1864 31.3945 14.145 31.367 14.095C31.3464 14.0577 31.3331 14.0165 31.3277 13.9738C31.3223 13.9311 31.325 13.8876 31.3357 13.846C31.3464 13.8044 31.3648 13.7654 31.3898 13.7312C31.4149 13.6971 31.4462 13.6685 31.4818 13.647L36.8933 10.368C37.0422 10.278 37.2339 10.3305 37.3193 10.4881C37.3608 10.5633 37.3722 10.6527 37.3509 10.7367C37.3296 10.8207 37.2774 10.8924 37.2058 10.9361L31.7943 14.2151C31.7468 14.2437 31.6929 14.2589 31.6381 14.259ZM26.7199 9.09829C26.665 9.09846 26.611 9.08331 26.5636 9.0544C26.5279 9.03296 26.4967 9.00435 26.4716 8.97021C26.4465 8.93606 26.4281 8.89705 26.4175 8.85542C26.4068 8.81379 26.4041 8.77036 26.4095 8.72763C26.4148 8.68489 26.4282 8.64369 26.4488 8.6064L29.5726 2.92687C29.6581 2.7696 29.8484 2.71554 29.9999 2.80677C30.0715 2.85038 30.1238 2.92209 30.1451 3.0061C30.1663 3.09011 30.155 3.17956 30.1134 3.25477L26.9896 8.9343C26.9624 8.98413 26.9231 9.02554 26.8757 9.05433C26.8284 9.08313 26.7746 9.09829 26.7199 9.09829ZM20.0014 7.20768C19.9604 7.20771 19.9197 7.19925 19.8818 7.18279C19.8438 7.16632 19.8094 7.14217 19.7803 7.11172C19.7513 7.08126 19.7283 7.0451 19.7126 7.00531C19.6969 6.96551 19.6888 6.92285 19.6888 6.87978L19.6882 0.322794C19.6895 0.236717 19.723 0.154626 19.7815 0.0942366C19.8399 0.0338468 19.9187 0 20.0007 0C20.0828 0 20.1615 0.0338468 20.22 0.0942366C20.2785 0.154626 20.312 0.236717 20.3133 0.322794L20.3139 6.87978C20.3139 6.96674 20.2809 7.05013 20.2224 7.11162C20.1638 7.1731 20.0843 7.20766 20.0014 7.20768ZM13.2826 9.09697C13.2277 9.09708 13.1738 9.08196 13.1264 9.05316C13.0789 9.02436 13.0395 8.9829 13.0122 8.93298L9.88715 3.25477C9.86655 3.2175 9.85317 3.17634 9.84776 3.13364C9.84235 3.09093 9.84503 3.04753 9.85563 3.00592C9.86624 2.9643 9.88456 2.92529 9.90955 2.89112C9.93455 2.85694 9.96572 2.82828 10.0013 2.80677C10.0368 2.7852 10.076 2.7712 10.1167 2.76557C10.1574 2.75993 10.1987 2.76278 10.2384 2.77393C10.278 2.78509 10.3151 2.80434 10.3477 2.83058C10.3802 2.85683 10.4075 2.88955 10.4279 2.92687L13.553 8.60508C13.5806 8.6549 13.5951 8.71145 13.5952 8.76905C13.5952 8.82664 13.5808 8.88324 13.5534 8.93313C13.526 8.98302 13.4865 9.02444 13.439 9.0532C13.3914 9.08197 13.3375 9.09707 13.2826 9.09697ZM37.0508 31.637C36.996 31.6371 36.9421 31.6221 36.8946 31.5935L31.4819 28.3144C31.4462 28.2929 31.415 28.2642 31.3899 28.2301C31.3648 28.1959 31.3465 28.1569 31.3358 28.1152C31.3251 28.0735 31.3224 28.0301 31.3278 27.9873C31.3332 27.9446 31.3465 27.9034 31.3671 27.866C31.4086 27.7907 31.4769 27.7357 31.557 27.7131C31.6371 27.6905 31.7225 27.7022 31.7944 27.7456L37.207 31.0248C37.2787 31.0685 37.3309 31.1402 37.3522 31.2243C37.3735 31.3083 37.3621 31.3978 37.3206 31.4731C37.2933 31.5229 37.254 31.5643 37.2066 31.5931C37.1593 31.6219 37.1055 31.637 37.0508 31.637ZM8.3637 14.2565C8.30884 14.2565 8.25495 14.2413 8.20742 14.2126L2.79538 10.9347C2.75982 10.9132 2.72865 10.8846 2.70366 10.8504C2.67868 10.8162 2.66036 10.7772 2.64975 10.7356C2.63915 10.694 2.63647 10.6506 2.64188 10.6079C2.64728 10.5652 2.66065 10.524 2.68123 10.4867C2.76731 10.3298 2.95894 10.277 3.10787 10.3666L8.51991 13.6445C8.55548 13.666 8.58665 13.6947 8.61164 13.7288C8.63664 13.763 8.65496 13.802 8.66556 13.8436C8.67617 13.8853 8.67884 13.9287 8.67343 13.9714C8.66803 14.0141 8.65464 14.0552 8.63405 14.0925C8.6067 14.1423 8.5673 14.1837 8.51984 14.2125C8.47238 14.2413 8.41852 14.2565 8.3637 14.2565Z" fill="black"/>
<path d="M20.0012 25.9255C19.9602 25.9255 19.9195 25.917 19.8816 25.9006C19.8437 25.8841 19.8093 25.86 19.7803 25.8295C19.7513 25.7991 19.7283 25.7629 19.7126 25.7231C19.6969 25.6833 19.6888 25.6406 19.6888 25.5976V15.408C19.6888 15.3649 19.6969 15.3223 19.7126 15.2825C19.7283 15.2427 19.7513 15.2065 19.7803 15.1761C19.8093 15.1456 19.8437 15.1215 19.8816 15.105C19.9195 15.0885 19.9602 15.0801 20.0012 15.0801C20.0422 15.0801 20.0828 15.0886 20.1207 15.105C20.1586 15.1215 20.193 15.1457 20.222 15.1761C20.251 15.2066 20.274 15.2427 20.2897 15.2825C20.3054 15.3223 20.3135 15.365 20.3135 15.408V25.5976C20.3135 25.6406 20.3054 25.6833 20.2897 25.7231C20.274 25.7629 20.251 25.799 20.222 25.8295C20.193 25.8599 20.1586 25.8841 20.1207 25.9006C20.0828 25.917 20.0422 25.9255 20.0012 25.9255Z" fill="black"/>
<path d="M20.9373 23.6045C20.1278 23.6045 19.7376 22.8014 19.7218 22.7667C19.6846 22.689 19.6784 22.599 19.7045 22.5165C19.7306 22.434 19.7869 22.3657 19.861 22.3267C19.935 22.2878 20.0208 22.2813 20.0994 22.3087C20.1781 22.336 20.2431 22.3951 20.2803 22.4728C20.284 22.4799 20.519 22.9487 20.9373 22.9487C21.0202 22.9488 21.0996 22.9833 21.1582 23.0448C21.2168 23.1063 21.2497 23.1897 21.2498 23.2766C21.2497 23.3635 21.2168 23.4469 21.1582 23.5084C21.0996 23.5699 21.0202 23.6044 20.9373 23.6045Z" fill="black"/>
<path d="M19.062 23.6045C19.0209 23.6045 18.9803 23.5961 18.9424 23.5796C18.9045 23.5631 18.87 23.539 18.841 23.5085C18.812 23.4781 18.7889 23.4419 18.7732 23.4021C18.7575 23.3623 18.7495 23.3197 18.7495 23.2766C18.7495 23.2335 18.7575 23.1909 18.7732 23.1511C18.7889 23.1113 18.8119 23.0751 18.841 23.0447C18.87 23.0142 18.9044 22.9901 18.9424 22.9736C18.9803 22.9571 19.0209 22.9487 19.062 22.9487C19.4806 22.9487 19.7163 22.4773 19.7187 22.4728C19.7974 22.3133 19.9855 22.248 20.1381 22.3287C20.2912 22.4106 20.3542 22.6054 20.2772 22.7668C20.2614 22.8014 19.8713 23.6045 19.062 23.6045ZM21.5623 19.6696C20.0801 19.6696 19.6888 18.5971 19.6888 18.03C19.6897 17.9439 19.7229 17.8616 19.7811 17.8009C19.8393 17.7402 19.918 17.7059 20 17.7056C20.0821 17.7052 20.161 17.7387 20.2198 17.7989C20.2785 17.859 20.3123 17.941 20.3139 18.0271C20.3157 18.1283 20.3657 19.0138 21.5624 19.0138C21.6452 19.0138 21.7247 19.0484 21.7833 19.1099C21.8419 19.1714 21.8748 19.2547 21.8749 19.3417C21.8748 19.4286 21.8418 19.512 21.7832 19.5735C21.7246 19.6349 21.6452 19.6695 21.5623 19.6696Z" fill="black"/>
<path d="M18.437 19.6696C18.396 19.6696 18.3553 19.6611 18.3174 19.6447C18.2795 19.6282 18.245 19.604 18.216 19.5736C18.187 19.5431 18.164 19.507 18.1483 19.4672C18.1326 19.4274 18.1245 19.3847 18.1245 19.3417C18.1245 19.2986 18.1326 19.256 18.1483 19.2162C18.164 19.1764 18.187 19.1402 18.216 19.1098C18.245 19.0793 18.2795 19.0552 18.3174 19.0387C18.3553 19.0222 18.396 19.0137 18.437 19.0138C19.6333 19.0138 19.6834 18.128 19.6852 18.0271C19.6883 17.8468 19.8213 17.6896 20.0008 17.7037C20.083 17.7042 20.1617 17.7387 20.2197 17.7999C20.2777 17.861 20.3102 17.9438 20.3102 18.0301C20.3102 18.5971 19.9189 19.6696 18.437 19.6696Z" fill="black"/>
</svg>
